{"title":"Wild.Target.2010.720p.BRRip.XviD.AC3-RSB","uid":6212167,"size":2364858583,"categoryP":"video","categoryS":"hd___movies","magnet":"?xt=urn:btih:34ff31c5b4133e9611e2c393adb359935a69db65&amp;dn=Wild.Target.2010.720p.BRRip.XviD.AC3-RSB&amp;tr=udp%3A%2F%2Ftracker.openbittorrent.com%3A80&amp;tr=udp%3A%2F%2Fopen.demonii.com%3A1337&amp;tr=udp%3A%2F%2Ftracker.coppersurfer.tk%3A6969&amp;tr=udp%3A%2F%2Fexodus.desync.com%3A6969","seeders":1,"leechers":0,"uploader":"RealSB","files":6,"time":1299023694,"description":"\n\nWild.Target.2010.720p.BRRip.XviD.AC3-RSB:\n\n\nScreens:\n\n\n\n\nPlot:\n\nVictor Maynard is a middle-aged, solitary assassin, who lives to please his formidable mother, despite his own peerless reputation for lethal efficiency. His professional routine is interrupted when he finds himself drawn to one of his intended victims, Rose. He spares her life, unexpectedly acquiring in the process a young apprentice, Tony. Believing Victor to be a private detective, his two new companions tag along, while he attempts to thwart the murderous attentions of his unhappy client.\n\n\nCast:\n\nBill Nighy\t... \tVictor Maynard\nEmily Blunt\t... \tRose\nRupert Grint\t... \tTony\nRupert Everett\t... \tFerguson\nEileen Atkins\t... \tLouisa Maynard\nMartin Freeman\t... \tHector Dixon\nGregor Fisher\t... \tMike\nGraham Seed\t... \tAppraiser\nDuncan Duff\t... \tJeweller\nStephanie Lammond\t... \tHotel receptionist\nPhilip Battley\t... \tBarman\nGeoff Bell\t... \tFabian\nSia Berkeley\t... \tHotel Receptionist\nRory Kinnear\t... \tGerry Bailey\nJames O'Donnell\t... \tBarney\nGeorge Rainsford\t... \tWaiter\nAlexis Rodney\t... \tShabby Hotel Receptionist\nAdrian Schiller\t... \tForger\n\n\nSOURCE: Wild Target 2010 720p BluRay DTS x264-CRiSC\n\nAUDIO LANGUAGE: English\n\n\nFormat                           : AVI\nFile size                        : 2.17 GiB\nDuration                         : 1h 37mn\nOverall bit rate                 : 3 180 Kbps\n\nVideo\nFormat                           : MPEG-4 Visual\nFormat settings, BVOP            : 1\nFormat settings, QPel            : No\nFormat settings, GMC             : No warppoints\nCodec ID/Hint                    : XviD\nDuration                         : 1h 37mn\nBit rate                         : 2 976 Kbps\nWidth                            : 1 280 pixels\nHeight                           : 720 pixels\nDisplay aspect ratio             : 16:9\nFrame rate                       : 24.000 fps\nColor space                      : YUV\nChroma subsampling               : 4:2:0\nBit depth                        : 8 bits\nScan type                        : Progressive\nBits/(Pixel*Frame)               : 0.135\nStream size                      : 2.03 GiB (94%)\n\nAudio\nFormat                           : AC-3\nMode extension                   : CM (complete main)\nDuration                         : 1h 37mn\nBit rate mode                    : Constant\nBit rate                         : 192 Kbps\nChannel(s)                       : 6 channels\nChannel positions                : Front: L C R, Side: L R, LFE\nSampling rate                    : 48.0 KHz\nBit depth                        : 16 bits\nStream size                      : 134 MiB (6%)\nAlignment                        : Split accross interleaves\nInterleave, duration             : 42 ms (1.00 video frame)\nInterleave, preload duration     : 500 ms\n\n\n          EnJoY iT ! :)\n\n\n","torrent":{"xt":"urn:btih:34ff31c5b4133e9611e2c393adb359935a69db65","amp;dn":"Wild.Target.2010.720p.BRRip.XviD.AC3-RSB","amp;tr":["udp%3A%2F%2Ftracker.openbittorrent.com%3A80","udp%3A%2F%2Fopen.demonii.com%3A1337","udp%3A%2F%2Ftracker.coppersurfer.tk%3A6969","udp%3A%2F%2Fexodus.desync.com%3A6969"],"infoHash":"34ff31c5b4133e9611e2c393adb359935a69db65","infoHashBuffer":{"type":"Buffer","data":[52,255,49,197,180,19,62,150,17,226,195,147,173,179,89,147,90,105,219,101]},"announce":[],"urlList":[]}}